<svg width="44" height="44" viewBox="0 0 44 44" fill="none" xmlns="http://www.w3.org/2000/svg">
<path d="M0 0H44V44H0V0Z" fill="#FF6565" fill-opacity="0.1"/>
<path d="M0.5 0.5H43.5V43.5H0.5V0.5Z" stroke="url(#paint0_linear_2490_16996)" stroke-opacity="0.45"/>
<path d="M28.6268 17.1227C28.7435 17.0098 28.8366 16.8747 28.9006 16.7252C28.9647 16.5758 28.9985 16.4151 28.9999 16.2525C29.0014 16.0898 28.9706 15.9285 28.9093 15.7779C28.848 15.6274 28.7574 15.4906 28.6428 15.3755C28.5282 15.2604 28.3919 15.1694 28.2418 15.1078C28.0918 15.0461 27.931 15.015 27.7689 15.0164C27.6068 15.0177 27.4465 15.0514 27.2975 15.1155C27.1485 15.1797 27.0137 15.2729 26.901 15.3899L22.0069 20.2977L17.1144 15.3899C17.0027 15.2695 16.8678 15.173 16.7181 15.106C16.5683 15.0391 16.4066 15.0031 16.2426 15.0002C16.0787 14.9973 15.9158 15.0275 15.7638 15.0892C15.6117 15.1508 15.4736 15.2425 15.3576 15.3588C15.2417 15.4751 15.1503 15.6136 15.0889 15.7662C15.0275 15.9187 14.9973 16.0821 15.0002 16.2465C15.0031 16.411 15.039 16.5732 15.1057 16.7235C15.1724 16.8737 15.2687 17.0089 15.3886 17.1211L20.2779 22.0306L15.3854 26.9384C15.1697 27.1706 15.0523 27.4777 15.0579 27.7951C15.0634 28.1124 15.1916 28.4152 15.4153 28.6396C15.639 28.864 15.9409 28.9926 16.2572 28.9982C16.5735 29.0038 16.8797 28.886 17.1112 28.6696L22.0069 23.7618L26.8994 28.6712C27.1309 28.8876 27.437 29.0054 27.7534 28.9998C28.0697 28.9942 28.3715 28.8657 28.5953 28.6412C28.819 28.4168 28.9471 28.114 28.9527 27.7967C28.9583 27.4794 28.8409 27.1722 28.6252 26.94L23.736 22.0306L28.6268 17.1227Z" fill="#FF6565" fill-opacity="0.9"/>
<defs>
<linearGradient id="paint0_linear_2490_16996" x1="81.0741" y1="-22.4074" x2="9.79957" y2="-17.3389" gradientUnits="userSpaceOnUse">
<stop stop-color="#FF6565"/>
<stop offset="1" stop-color="#FF6565" stop-opacity="0"/>
</linearGradient>
</defs>
</svg>
