<svg width="44" height="44" viewBox="0 0 44 44" fill="none" xmlns="http://www.w3.org/2000/svg">
<path d="M0 0H44V44H0V0Z" fill="white" fill-opacity="0.1"/>
<path d="M0.5 0.5H43.5V43.5H0.5V0.5Z" stroke="url(#paint0_linear_2490_16992)" stroke-opacity="0.35"/>
<path d="M19.7083 30.3333L19.375 27.6667C19.1944 27.5972 19.0244 27.5139 18.865 27.4167C18.705 27.3194 18.5486 27.2153 18.3958 27.1042L15.9167 28.1458L13.625 24.1875L15.7708 22.5625C15.7569 22.4653 15.75 22.3714 15.75 22.2808V21.7183C15.75 21.6283 15.7569 21.5347 15.7708 21.4375L13.625 19.8125L15.9167 15.8542L18.3958 16.8958C18.5486 16.7847 18.7083 16.6806 18.875 16.5833C19.0417 16.4861 19.2083 16.4028 19.375 16.3333L19.7083 13.6667H24.2917L24.625 16.3333C24.8056 16.4028 24.9758 16.4861 25.1358 16.5833C25.2953 16.6806 25.4514 16.7847 25.6042 16.8958L28.0833 15.8542L30.375 19.8125L28.2292 21.4375C28.2431 21.5347 28.25 21.6283 28.25 21.7183V22.2808C28.25 22.3714 28.2361 22.4653 28.2083 22.5625L30.3542 24.1875L28.0625 28.1458L25.6042 27.1042C25.4514 27.2153 25.2917 27.3194 25.125 27.4167C24.9583 27.5139 24.7917 27.5972 24.625 27.6667L24.2917 30.3333H19.7083ZM22.0417 24.9167C22.8472 24.9167 23.5347 24.6319 24.1042 24.0625C24.6736 23.4931 24.9583 22.8056 24.9583 22C24.9583 21.1944 24.6736 20.5069 24.1042 19.9375C23.5347 19.3681 22.8472 19.0833 22.0417 19.0833C21.2222 19.0833 20.5311 19.3681 19.9683 19.9375C19.4061 20.5069 19.125 21.1944 19.125 22C19.125 22.8056 19.4061 23.4931 19.9683 24.0625C20.5311 24.6319 21.2222 24.9167 22.0417 24.9167Z" fill="white" fill-opacity="0.9"/>
<defs>
<linearGradient id="paint0_linear_2490_16992" x1="81.0741" y1="-22.4074" x2="9.79957" y2="-17.3389" gradientUnits="userSpaceOnUse">
<stop stop-color="white"/>
<stop offset="1" stop-color="white" stop-opacity="0"/>
</linearGradient>
</defs>
</svg>
